# xmcd
#
# Track frame offsets: 
#        180
#        15076
#        31899
#        49571
#        61415
#        74388
#        85502
#        107056
#        115443
#        131039
#        141123
#        162795
#        174905
#        195472
#        213339
#
# Disc length: 3145 seconds
#
# Revision: 3
# Processed by: cddbd v1.5.2PL0 Copyright (c) Steve Scherf et al.
# Submitted via: ExactAudioCopy v0.95b3
#
DISCID=bf0c470f
DTITLE=Tim Williams - Riverboat Rendezvous
DYEAR=1995
DGENRE=Blues
TTITLE0=Riverboat Rendezvous
TTITLE1=When I Don't Live With You
TTITLE2=Please, Baby
TTITLE3=Someday, Baby
TTITLE4='Fore Day Train
TTITLE5=Losing My Race With The Reaper
TTITLE6=The Witching Hour Blues
TTITLE7=Come On Boys, And Do That Messin' Round
TTITLE8=Breathing In The City
TTITLE9=Poor Boy
TTITLE10=If I Had Possession Over Judgement Day
TTITLE11=From Sorrow To Today
TTITLE12=No Last Chance
TTITLE13=A Two-Cat Family
TTITLE14=When The Pearly Gates Unfold
EXTD=
EXTT0=
EXTT1=
EXTT2=
EXTT3=
EXTT4=
EXTT5=
EXTT6=
EXTT7=
EXTT8=
EXTT9=
EXTT10=
EXTT11=
EXTT12=
EXTT13=
EXTT14=
PLAYORDER=
